# xmcd
#
# Track frame offsets: 
#        150
#        4063
#        7249
#        10153
#        13516
#        29626
#        34094
#        37553
#        53682
#        58144
#        61123
#        64254
#        67795
#        77827
#        94658
#        99280
#        104596
#        109493
#        128500
#        137419
#        163018
#        169723
#        177896
#        181720
#        195415
#        199907
#        204334
#        219111
#        222159
#        225102
#        244734
#        251238
#
# Disc length: 3448 seconds
#
# Revision: 0
# Processed by: cddbd v1.5.1PL0 Copyright (c) Steve Scherf et al.
# Submitted via: ExactAudioCopy v0.95b2
#
DISCID=9e0d7620
DTITLE=Matt Glaser - Texas and Swing Fiddle CD4
DYEAR=1900
DGENRE=Country
TTITLE0=Intro
TTITLE1=Corrina, Corrina - Played
TTITLE2=Corrina, Corrina - Melody Broken Down
TTITLE3=Corrina, Corrina - Tierny Style Break Played Slowly
TTITLE4=Corrina, Corrina - Tierny Style Break Broken Down
TTITLE5=Corrina, Corrina - Gimble Style Break Played
TTITLE6=Corrina, Corrina - Gimble Style Break Played Slowly
TTITLE7=Corrina, Corrina - Gimble Style Break Broken Down
TTITLE8=Take Me Back To Tulsa - Played
TTITLE9=Take Me Back To Tulsa - Tierney Style Break Played
TTITLE10=Take Me Back To Tulsa - Gimble Style Break Played
TTITLE11=Take Me Back To Tulsa - Tierney Style Break Played Slowly
TTITLE12=Take Me Back To Tulsa - Tierney Style Break Broken Down
TTITLE13=Take Me Back To Tulsa - Gimble Style Break Broken Down
TTITLE14=Take Me Back To Tulsa - Gimble Style Break Played Slowly
TTITLE15=Take Me Back To Tulsa - Holley Style Break Played
TTITLE16=Take Me Back To Tulsa - Holley Style Break Played Slowly
TTITLE17=Take Me Back To Tulsa - Holley Style Break Broken Down
TTITLE18=Corrina, Corrina - Clements Style - Played
TTITLE19=Corrina, Corrina - Clements Style - Broken Down
TTITLE20=Corrina, Corrina - Clements Style - Played Slowly
TTITLE21=Milk Cow Blues - Played
TTITLE22=Milk Cow Blues - Colemen Style Break Played
TTITLE23=Milk Cow Blues - Colemen Style Break Broken Down
TTITLE24=Milk Cow Blues - Colemen Style Break Played Slowly
TTITLE25=Slow Blues - Gimble Style - Played
TTITLE26=Slow Blues - Gimble Style - Broken Down
TTITLE27=Fast Blues - Gimble Style - Played
TTITLE28=Fast Blues - Gimble Style - Played Slowly
TTITLE29=Fast Blues - Gimble Style - Broken Down
TTITLE30=Western Swing Discussed
TTITLE31=Outro Blues
EXTD=
EXTT0=
EXTT1=
EXTT2=
EXTT3=
EXTT4=
EXTT5=
EXTT6=
EXTT7=
EXTT8=
EXTT9=
EXTT10=
EXTT11=
EXTT12=
EXTT13=
EXTT14=
EXTT15=
EXTT16=
EXTT17=
EXTT18=
EXTT19=
EXTT20=
EXTT21=
EXTT22=
EXTT23=
EXTT24=
EXTT25=
EXTT26=
EXTT27=
EXTT28=
EXTT29=
EXTT30=
EXTT31=
PLAYORDER=
